<?xml version="1.0" encoding="UTF-8" standalone="no"?>
<!-- Created with Inkscape (http://www.inkscape.org/) -->

<svg
   version="1.1"
   id="svg1"
   width="1200"
   height="1200"
   viewBox="0 0 1200 1200"
   sodipodi:docname="Tulipbooking.svg"
   inkscape:version="1.4.3 (0d15f75, 2025-12-25)"
   inkscape:export-filename="../Documents/Tulipbooking.png"
   inkscape:export-xdpi="96"
   inkscape:export-ydpi="96"
   xmlns:inkscape="http://www.inkscape.org/namespaces/inkscape"
   xmlns:sodipodi="http://sodipodi.sourceforge.net/DTD/sodipodi-0.dtd"
   xmlns="http://www.w3.org/2000/svg"
   xmlns:svg="http://www.w3.org/2000/svg">
  <defs
     id="defs1" />
  <sodipodi:namedview
     id="namedview1"
     pagecolor="#ffffff"
     bordercolor="#000000"
     borderopacity="0.25"
     inkscape:showpageshadow="2"
     inkscape:pageopacity="0.0"
     inkscape:pagecheckerboard="true"
     inkscape:deskcolor="#d1d1d1"
     inkscape:zoom="0.41936282"
     inkscape:cx="470.95258"
     inkscape:cy="865.59892"
     inkscape:window-width="1444"
     inkscape:window-height="769"
     inkscape:window-x="0"
     inkscape:window-y="33"
     inkscape:window-maximized="0"
     inkscape:current-layer="g1" />
  <g
     inkscape:groupmode="layer"
     inkscape:label="Image"
     id="g1"
     transform="translate(3.8777622,-3.8778411)">
    <path
       id="path1"
       style="fill:#000000;fill-opacity:0;stroke:none;stroke-opacity:1"
       d="M -3.8777622,3.8778411 V 603.87784 1203.8778 H 596.12216 1196.1222 V 603.87784 3.8778411 H 596.12216 Z M 596.36239,401.87784 c 4.16363,0 20.62497,12.13083 31.51954,23.22656 l 5.25976,5.35742 1.40235,7.97461 c 2.63323,14.97711 5.26657,24.02577 22.0957,75.94141 21.92914,67.64847 25.99737,84.56512 28.55469,118.70898 l 1.16406,15.54102 -1.14453,14.875 c -2.74904,35.7158 -13.74224,68.66288 -32.15625,96.375 -4.68248,8.74689 -11.95842,15.11439 -18.90039,22.01758 -6.92324,6.88465 -15.43981,14.42215 -18.92578,16.75 -5.93197,3.96122 -8.10938,4.95841 -8.10938,3.71094 0,-0.28721 1.79869,-4.10225 3.99805,-8.47657 5.29562,-10.53246 8.39294,-20.04615 11.06836,-34.00195 2.90845,-9.58319 1.92232,-19.154 1.55859,-29 -1.67271,-45.27715 -7.66478,-68.00884 -46.35759,-162.06885 -20.17302,-49.03945 -29.54203,-72.11454 -34.85335,-89.78662 l -3.71289,-12.35547 1.77149,-5.64453 c 4.15892,-13.2513 15.03561,-29.95037 26.09765,-40.06641 11.75377,-10.7486 24.70857,-19.07812 29.66992,-19.07812 z m -109.957,1.85352 2.6924,1.00184 c 2.7609,1.0273 13.9482,7.39179 21.6748,13.29698 l 5.1484,3.93555 0.6836,8.20703 c 2.8064,33.77151 7.35422,49.58973 35.86327,124.73633 24.64325,64.95676 29.37167,79.61034 33.71289,104.46875 0.44127,1.75535 5.60985,29.65386 1.53125,57.26562 -0.91474,6.19561 -2.78882,15.19562 -4.16406,20 -3.2681,11.41715 -12.07158,29.38707 -17.90234,36.54493 -5.47008,6.7151 -15.2856,14.88781 -21.25,17.6914 -5.62715,2.64507 -8.4176,2.4926 -16.79102,-0.91015 -13.22089,-5.37263 -27.26939,-14.64747 -42.12109,-27.81055 -23.0965,-20.47045 -39.088,-49.8801 -45.5547,-83.78125 -4.41746,-20.60257 -2.24787,-42.03959 -2.2191,-63 l 1.7422,-12.5 c 3.1982,-22.93858 9.6476,-51.82091 26.3321,-117.92969 9.1016,-36.06329 17.4636,-69.09005 18.5839,-73.39258 z m 217.04685,0.14648 h 1.38672 l 5.10351,19.75 c 13.98203,70.41675 44.38712,143.57141 44.17969,216.4375 v 22.55078 l -1.52344,8.88086 c -5.16395,32.57537 -19.04992,63.16088 -42.43164,86.42578 -5.85147,7.16047 -12.97125,12.15664 -20.55664,17.19531 -12.22575,8.11996 -29.32698,16.36629 -43.88867,21.16602 -11.25356,3.70933 -12.59961,4.02834 -12.59961,2.97266 0,-0.34196 4.13043,-4.50446 9.17773,-9.25 26.98397,-25.37071 46.24552,-57.38558 55.12891,-91.62891 4.49845,-17.34046 5.82975,-27.23901 6.40625,-47.61914 l 0.55469,-19.61914 -1.17969,-11.25781 C 699.81631,587.4697 694.92776,568.41137 673.04794,502.2919 l -13.92578,-42.08594 v -5.67968 c -0.95787,-6.9318 7.80565,-24.26699 15.66211,-31.76172 9.81458,-9.3615 24.27287,-18.88672 28.66797,-18.88672 z"
       sodipodi:nodetypes="cccccccccscccssccssssscssccssscscccsscssssssccsccscccccccsssscccccccs" />
    <path
       style="fill:#ffffff;fill-opacity:0;stroke-width:2.20236;stroke-opacity:0.207843"
       d="m 531.87112,784.66692 c -14.81551,-5.9749 -32.30828,-18.41399 -47.79026,-33.98359 -17.20315,-17.3005 -32.17518,-45.60826 -37.91619,-71.68854 -5.0218,-22.813 -4.56877,-64.37678 1.04126,-95.53352 4.24281,-23.56353 39.86928,-170.30901 43.40766,-178.79625 1.43668,-3.44604 3.1345,-2.87997 15.37974,5.12776 13.23143,8.65265 13.7659,9.35744 13.79371,18.18904 0.0159,5.05318 1.88789,18.10718 4.15994,29.00889 3.83603,18.40593 9.84598,36.02159 43.20451,126.63598 15.28986,41.53308 22.33368,68.43875 24.29453,92.79922 3.61011,44.84997 -12.47332,89.28471 -38.22934,105.6187 -11.6543,7.39094 -10.01922,7.19006 -21.34556,2.62231 z"
       id="path2"
       transform="translate(-3.8777622,3.8778411)" />
    <path
       style="fill:#ffffff;fill-opacity:0;stroke-width:2.20236;stroke-opacity:0.207843"
       d="m 614.4598,794.2325 c 0,-0.45168 2.04163,-5.43669 4.53697,-11.07781 8.73411,-19.7449 11.08137,-37.96029 8.67964,-67.35651 -3.51845,-43.06434 -8.98133,-60.91763 -49.38086,-161.38215 -13.75401,-34.20312 -27.22854,-69.16388 -29.9434,-77.69059 l -4.93612,-15.5031 5.94746,-12.5719 c 7.18579,-15.18952 23.81184,-33.88218 38.54561,-43.33681 10.36281,-6.6498 11.11865,-6.80672 17.32568,-3.59694 3.56959,1.84591 11.92747,8.32559 18.57307,14.39929 10.74173,9.81734 12.36309,12.46727 14.60719,23.87381 1.38836,7.05689 9.49407,34.58136 18.0127,61.16548 20.45974,63.84886 27.71966,92.29373 30.7577,120.51082 4.73058,43.93738 -4.85087,89.22359 -26.79617,126.65078 -9.46521,16.14267 -45.92947,52.59595 -45.92947,45.91563 z"
       id="path3"
       transform="translate(-3.8777622,3.8778411)" />
    <path
       style="fill:#ffffff;fill-opacity:0;stroke-width:2.20236;stroke-opacity:0.207843"
       d="m 655.54699,778.26575 c 34.95279,-39.841 50.25975,-77.04363 52.89915,-128.56811 2.12623,-41.50669 -6.18504,-80.62502 -35.53728,-167.26187 -4.28707,-12.65383 -7.79467,-26.81598 -7.79467,-31.47144 0,-11.28596 6.30484,-23.03825 18.28261,-34.07897 9.01013,-8.30525 23.21766,-17.38873 24.50445,-15.66676 0.29304,0.39215 5.13632,19.54321 10.76283,42.55792 5.62651,23.01471 14.61852,58.69302 19.98224,79.28514 13.71753,52.66363 17.34129,76.00529 17.60854,113.42179 0.26294,36.81114 -2.38897,49.42476 -16.61856,79.04525 -7.00696,14.58578 -12.66185,22.2948 -26.83401,36.58139 -14.98357,15.10455 -21.41984,19.77274 -38.87864,28.19842 -32.65319,15.75856 -33.87474,15.62276 -18.37666,-2.04276 z"
       id="path4"
       transform="translate(-3.8777622,3.8778411)" />
    <path
       style="fill:#ffffff;fill-opacity:0;stroke-width:2.20236;stroke-opacity:0.207843"
       d="m 655.54699,778.26575 c 34.95279,-39.841 50.25975,-77.04363 52.89915,-128.56811 2.12623,-41.50669 -6.18504,-80.62502 -35.53728,-167.26187 -4.28707,-12.65383 -7.79467,-26.81598 -7.79467,-31.47144 0,-11.28596 6.30484,-23.03825 18.28261,-34.07897 9.01013,-8.30525 23.21766,-17.38873 24.50445,-15.66676 0.29304,0.39215 5.13632,19.54321 10.76283,42.55792 5.62651,23.01471 14.61852,58.69302 19.98224,79.28514 13.71753,52.66363 17.34129,76.00529 17.60854,113.42179 0.26294,36.81114 -2.38897,49.42476 -16.61856,79.04525 -7.00696,14.58578 -12.66185,22.2948 -26.83401,36.58139 -14.98357,15.10455 -21.41984,19.77274 -38.87864,28.19842 -32.65319,15.75856 -33.87474,15.62276 -18.37666,-2.04276 z"
       id="path5"
       transform="translate(-3.8777622,3.8778411)" />
    <path
       style="fill:#ffffff;fill-opacity:0;stroke-width:2.20236;stroke-opacity:0.207843"
       d="m 614.4598,794.2325 c 0,-0.45168 2.04163,-5.43669 4.53697,-11.07781 8.73411,-19.7449 11.08137,-37.96029 8.67964,-67.35651 -3.51845,-43.06434 -8.98133,-60.91763 -49.38086,-161.38215 -13.75401,-34.20312 -27.22854,-69.16388 -29.9434,-77.69059 l -4.93612,-15.5031 5.94746,-12.5719 c 7.18579,-15.18952 23.81184,-33.88218 38.54561,-43.33681 10.36281,-6.6498 11.11865,-6.80672 17.32568,-3.59694 3.56959,1.84591 11.92747,8.32559 18.57307,14.39929 10.74173,9.81734 12.36309,12.46727 14.60719,23.87381 1.38836,7.05689 9.49407,34.58136 18.0127,61.16548 20.45974,63.84886 27.71966,92.29373 30.7577,120.51082 4.73058,43.93738 -4.85087,89.22359 -26.79617,126.65078 -9.46521,16.14267 -45.92947,52.59595 -45.92947,45.91563 z"
       id="path6"
       transform="translate(-3.8777622,3.8778411)" />
    <path
       style="fill:#d45500;fill-opacity:0;stroke-width:2.20236;stroke-opacity:0.207843"
       d="m 531.87112,784.66692 c -14.81551,-5.9749 -32.30828,-18.41399 -47.79026,-33.98359 -17.20315,-17.3005 -32.17518,-45.60826 -37.91619,-71.68854 -5.0218,-22.813 -4.56877,-64.37678 1.04126,-95.53352 4.24281,-23.56353 39.86928,-170.30901 43.40766,-178.79625 1.43668,-3.44604 3.1345,-2.87997 15.37974,5.12776 13.23143,8.65265 13.7659,9.35744 13.79371,18.18904 0.0159,5.05318 1.88789,18.10718 4.15994,29.00889 3.83603,18.40593 9.84598,36.02159 43.20451,126.63598 15.28986,41.53308 22.33368,68.43875 24.29453,92.79922 3.61011,44.84997 -12.47332,89.28471 -38.22934,105.6187 -11.6543,7.39094 -10.01922,7.19006 -21.34556,2.62231 z"
       id="path7"
       transform="translate(-3.8777622,3.8778411)" />
    <path
       style="fill:#d45500;fill-opacity:0;stroke-width:2.20236;stroke-opacity:0.207843"
       d="m 531.87112,784.66692 c -14.81551,-5.9749 -32.30828,-18.41399 -47.79026,-33.98359 -17.20315,-17.3005 -32.17518,-45.60826 -37.91619,-71.68854 -5.0218,-22.813 -4.56877,-64.37678 1.04126,-95.53352 4.24281,-23.56353 39.86928,-170.30901 43.40766,-178.79625 1.43668,-3.44604 3.1345,-2.87997 15.37974,5.12776 13.23143,8.65265 13.7659,9.35744 13.79371,18.18904 0.0159,5.05318 1.88789,18.10718 4.15994,29.00889 3.83603,18.40593 9.84598,36.02159 43.20451,126.63598 15.28986,41.53308 22.33368,68.43875 24.29453,92.79922 3.61011,44.84997 -12.47332,89.28471 -38.22934,105.6187 -11.6543,7.39094 -10.01922,7.19006 -21.34556,2.62231 z"
       id="path8"
       transform="translate(-3.8777622,3.8778411)" />
    <path
       style="fill:#d45500;fill-opacity:0;stroke-width:2.20236;stroke-opacity:0.207843"
       d="m 614.4598,794.2325 c 0,-0.45168 2.04163,-5.43669 4.53697,-11.07781 8.73411,-19.7449 11.08137,-37.96029 8.67964,-67.35651 -3.51845,-43.06434 -8.98133,-60.91763 -49.38086,-161.38215 -13.75401,-34.20312 -27.22854,-69.16388 -29.9434,-77.69059 l -4.93612,-15.5031 5.94746,-12.5719 c 7.18579,-15.18952 23.81184,-33.88218 38.54561,-43.33681 10.36281,-6.6498 11.11865,-6.80672 17.32568,-3.59694 3.56959,1.84591 11.92747,8.32559 18.57307,14.39929 10.74173,9.81734 12.36309,12.46727 14.60719,23.87381 1.38836,7.05689 9.49407,34.58136 18.0127,61.16548 20.45974,63.84886 27.71966,92.29373 30.7577,120.51082 4.73058,43.93738 -4.85087,89.22359 -26.79617,126.65078 -9.46521,16.14267 -45.92947,52.59595 -45.92947,45.91563 z"
       id="path9"
       transform="translate(-3.8777622,3.8778411)" />
    <path
       style="fill:#d45500;fill-opacity:0;stroke-width:2.20236;stroke-opacity:0.207843"
       d="m 655.54699,778.26575 c 34.95279,-39.841 50.25975,-77.04363 52.89915,-128.56811 2.12623,-41.50669 -6.18504,-80.62502 -35.53728,-167.26187 -4.28707,-12.65383 -7.79467,-26.81598 -7.79467,-31.47144 0,-11.28596 6.30484,-23.03825 18.28261,-34.07897 9.01013,-8.30525 23.21766,-17.38873 24.50445,-15.66676 0.29304,0.39215 5.13632,19.54321 10.76283,42.55792 5.62651,23.01471 14.61852,58.69302 19.98224,79.28514 13.71753,52.66363 17.34129,76.00529 17.60854,113.42179 0.26294,36.81114 -2.38897,49.42476 -16.61856,79.04525 -7.00696,14.58578 -12.66185,22.2948 -26.83401,36.58139 -14.98357,15.10455 -21.41984,19.77274 -38.87864,28.19842 -32.65319,15.75856 -33.87474,15.62276 -18.37666,-2.04276 z"
       id="path10"
       transform="translate(-3.8777622,3.8778411)" />
    <path
       style="fill:#d45500;fill-opacity:0;stroke-width:2.20236;stroke-opacity:0.207843"
       d="m 531.87112,784.66692 c -14.81551,-5.9749 -32.30828,-18.41399 -47.79026,-33.98359 -17.20315,-17.3005 -32.17518,-45.60826 -37.91619,-71.68854 -5.0218,-22.813 -4.56877,-64.37678 1.04126,-95.53352 4.24281,-23.56353 39.86928,-170.30901 43.40766,-178.79625 1.43668,-3.44604 3.1345,-2.87997 15.37974,5.12776 13.23143,8.65265 13.7659,9.35744 13.79371,18.18904 0.0159,5.05318 1.88789,18.10718 4.15994,29.00889 3.83603,18.40593 9.84598,36.02159 43.20451,126.63598 15.28986,41.53308 22.33368,68.43875 24.29453,92.79922 3.61011,44.84997 -12.47332,89.28471 -38.22934,105.6187 -11.6543,7.39094 -10.01922,7.19006 -21.34556,2.62231 z"
       id="path11"
       transform="translate(-3.8777622,3.8778411)" />
    <path
       style="fill:#d45500;fill-opacity:0;stroke-width:2.20236;stroke-opacity:0.207843"
       d="m 614.4598,794.2325 c 0,-0.45168 2.04163,-5.43669 4.53697,-11.07781 8.73411,-19.7449 11.08137,-37.96029 8.67964,-67.35651 -3.51845,-43.06434 -8.98133,-60.91763 -49.38086,-161.38215 -13.75401,-34.20312 -27.22854,-69.16388 -29.9434,-77.69059 l -4.93612,-15.5031 5.94746,-12.5719 c 7.18579,-15.18952 23.81184,-33.88218 38.54561,-43.33681 10.36281,-6.6498 11.11865,-6.80672 17.32568,-3.59694 3.56959,1.84591 11.92747,8.32559 18.57307,14.39929 10.74173,9.81734 12.36309,12.46727 14.60719,23.87381 1.38836,7.05689 9.49407,34.58136 18.0127,61.16548 20.45974,63.84886 27.71966,92.29373 30.7577,120.51082 4.73058,43.93738 -4.85087,89.22359 -26.79617,126.65078 -9.46521,16.14267 -45.92947,52.59595 -45.92947,45.91563 z"
       id="path12"
       transform="translate(-3.8777622,3.8778411)" />
    <path
       style="fill:#d45500;fill-opacity:0;stroke-width:2.20236;stroke-opacity:0.207843"
       d="m 655.54699,778.26575 c 34.95279,-39.841 50.25975,-77.04363 52.89915,-128.56811 2.12623,-41.50669 -6.18504,-80.62502 -35.53728,-167.26187 -4.28707,-12.65383 -7.79467,-26.81598 -7.79467,-31.47144 0,-11.28596 6.30484,-23.03825 18.28261,-34.07897 9.01013,-8.30525 23.21766,-17.38873 24.50445,-15.66676 0.29304,0.39215 5.13632,19.54321 10.76283,42.55792 5.62651,23.01471 14.61852,58.69302 19.98224,79.28514 13.71753,52.66363 17.34129,76.00529 17.60854,113.42179 0.26294,36.81114 -2.38897,49.42476 -16.61856,79.04525 -7.00696,14.58578 -12.66185,22.2948 -26.83401,36.58139 -14.98357,15.10455 -21.41984,19.77274 -38.87864,28.19842 -32.65319,15.75856 -33.87474,15.62276 -18.37666,-2.04276 z"
       id="path13"
       transform="translate(-3.8777622,3.8778411)" />
    <path
       style="fill:#1769c5;fill-opacity:1;stroke-width:3.5769;stroke-opacity:0.207843"
       d="M 474.40258,834.73284 C 433.64894,815.80857 388.13615,772.73147 367.69975,733.74034 343.78283,688.10868 339.40207,668.2112 339.62736,606.23483 c 0.22717,-62.49502 1.4905,-68.85153 48.79167,-245.49772 l 32.05657,-119.71526 16.96606,9.05699 c 26.6195,14.21026 29.31531,17.47112 31.91369,38.60293 4.87224,39.62456 17.69674,79.68844 60.66449,189.51655 55.94835,143.00728 58.04428,150.74153 58.04428,214.18888 0,52.02646 -3.40551,68.27921 -21.19244,101.14085 -12.72917,23.51739 -47.50243,53.93342 -61.65959,53.93342 -1.86903,0 -15.7333,-5.7279 -30.80951,-12.72863 z"
       id="path24" />
    <path
       style="fill:#1769c5;fill-opacity:1;stroke-width:3.5769;stroke-opacity:0.207843"
       d="M 636.62481,842.77554 C 652.05237,810.4032 656.15914,786.262 653.70766,742.35557 650.0541,676.91996 636.5578,634.18891 575.34105,494.23675 529.65356,389.78718 513.95423,349.87643 513.95423,338.17946 c 0,-24.43945 39.20983,-72.25983 75.29438,-91.8292 l 17.74789,-9.62503 13.80988,8.54961 c 7.59543,4.70228 20.97835,14.56935 29.73981,21.92683 14.12037,11.85761 16.73064,16.50892 22.97847,40.94597 3.87668,15.16282 18.90084,62.46046 33.387,105.10589 43.68713,128.60937 50.84866,162.84951 47.15413,225.44942 -2.8541,48.35959 -12.87124,84.6041 -34.83794,126.05225 -14.16912,26.73522 -23.19358,38.26668 -49.2183,62.89122 -17.52732,16.58435 -33.82018,30.15334 -36.20633,30.15334 -2.87803,0 -1.92822,-5.05753 2.82159,-15.02422 z"
       id="path25" />
    <path
       style="fill:#1769c5;fill-opacity:1;stroke-width:3.5769;stroke-opacity:0.207843"
       d="m 697.35202,833.46047 c 68.8364,-69.01288 94.52226,-136.80201 90.3459,-238.4375 -2.34418,-57.04731 -7.38808,-77.6461 -47.67901,-194.7159 -20.57954,-59.79611 -25.8704,-79.30438 -24.00769,-88.52046 3.6637,-18.12695 23.96369,-42.95373 47.79371,-58.45147 24.52863,-15.95206 25.04685,-15.71631 32.09468,14.59932 2.49803,10.74514 16.88521,63.73277 31.97147,117.75031 32.7662,117.32187 42.49846,169.08198 42.49946,226.02949 0.002,110.01228 -54.05839,190.01229 -156.15198,231.0783 -15.80806,6.35861 -30.75892,11.5611 -33.22412,11.5611 -2.46522,0 4.89569,-9.40195 16.35758,-20.89319 z"
       id="path26" />
  </g>
</svg>
